<svg width="13" height="13" viewBox="0 0 13 13" fill="none" xmlns="http://www.w3.org/2000/svg">
<path d="M6.48847 0C2.91981 0 0 2.91981 0 6.48847C0 10.0571 2.91981 12.9769 6.48847 12.9769C10.0571 12.9769 12.9769 10.0571 12.9769 6.48847C12.9769 2.91981 10.0571 0 6.48847 0ZM6.48847 1.62212C9.18118 1.62212 11.3548 3.79575 11.3548 6.48847C11.3548 9.18118 9.18118 11.3548 6.48847 11.3548C3.79575 11.3548 1.62212 9.18118 1.62212 6.48847C1.62212 3.79575 3.79575 1.62212 6.48847 1.62212ZM5.67741 3.24423V6.84533L5.93695 7.05621L6.748 7.86726L7.29952 8.48367L8.46745 7.31575L7.85104 6.76423L7.29952 6.21271V3.27668H5.67741V3.24423Z" fill="#8E8E8E"/>
</svg>
