<svg width="33" height="33" viewBox="0 0 33 33" fill="none" xmlns="http://www.w3.org/2000/svg">
<rect x="0.5" y="0.5" width="32" height="32" rx="16" fill="#4A4A4A" stroke="#6A6A6A"/>
<mask id="path-2-outside-1_98_13" maskUnits="userSpaceOnUse" x="9.89282" y="9.703" width="14" height="12" fill="black">
<rect fill="white" x="9.89282" y="9.703" width="14" height="12"/>
<path d="M16.9488 12.0105L21.8928 19.1385L21.2448 19.5945L16.9488 13.3545L12.6528 19.5945L12.0048 19.1385L16.9488 12.0105Z"/>
</mask>
<path d="M16.9488 12.0105L21.8928 19.1385L21.2448 19.5945L16.9488 13.3545L12.6528 19.5945L12.0048 19.1385L16.9488 12.0105Z" fill="#959595"/>
<path d="M16.9488 12.0105L17.7705 11.4406L16.9488 10.2559L16.1271 11.4406L16.9488 12.0105ZM21.8928 19.1385L22.4683 19.9563L23.2806 19.3847L22.7145 18.5686L21.8928 19.1385ZM21.2448 19.5945L20.4212 20.1616L20.9941 20.9937L21.8203 20.4123L21.2448 19.5945ZM16.9488 13.3545L17.7725 12.7874L16.9488 11.591L16.1251 12.7874L16.9488 13.3545ZM12.6528 19.5945L12.0773 20.4123L12.9036 20.9937L13.4765 20.1616L12.6528 19.5945ZM12.0048 19.1385L11.1831 18.5686L10.6171 19.3847L11.4293 19.9563L12.0048 19.1385ZM16.1271 12.5804L21.0711 19.7084L22.7145 18.5686L17.7705 11.4406L16.1271 12.5804ZM21.3173 18.3207L20.6693 18.7767L21.8203 20.4123L22.4683 19.9563L21.3173 18.3207ZM22.0685 19.0274L17.7725 12.7874L16.1251 13.9216L20.4212 20.1616L22.0685 19.0274ZM16.1251 12.7874L11.8291 19.0274L13.4765 20.1616L17.7725 13.9216L16.1251 12.7874ZM13.2283 18.7767L12.5803 18.3207L11.4293 19.9563L12.0773 20.4123L13.2283 18.7767ZM12.8265 19.7084L17.7705 12.5804L16.1271 11.4406L11.1831 18.5686L12.8265 19.7084Z" fill="#6A6A6A" mask="url(#path-2-outside-1_98_13)"/>
</svg>
